<svg width="26" height="25" viewBox="0 0 26 25" fill="none" xmlns="http://www.w3.org/2000/svg">
<path d="M23.5468 12.7925C23.5468 12.013 23.4752 11.2636 23.3424 10.5441H12.7543V14.7961H18.8046C18.544 16.1702 17.7519 17.3343 16.5613 18.1138V20.8719H20.1946C22.3204 18.9582 23.5468 16.1402 23.5468 12.7925Z" fill="#4285F4"/>
<path d="M12.7543 23.535C15.7897 23.535 18.3345 22.5507 20.1946 20.8719L16.5613 18.1138C15.5546 18.7733 14.2669 19.1631 12.7543 19.1631C9.82623 19.1631 7.34784 17.2294 6.4638 14.6312H2.70789V17.4792C4.55774 21.0718 8.35964 23.535 12.7543 23.535Z" fill="#34A853"/>
<path d="M6.46376 14.6312C6.23891 13.9717 6.11116 13.2671 6.11116 12.5426C6.11116 11.8182 6.23891 11.1136 6.46376 10.4541V7.60608H2.70785C1.92089 9.13787 1.51139 10.8285 1.51209 12.5426C1.51209 14.3164 1.94644 15.9952 2.70785 17.4792L6.46376 14.6312Z" fill="#FBBC05"/>
<path d="M12.7543 5.92225C14.4049 5.92225 15.8868 6.47687 17.0519 7.56611L20.2764 4.4133C18.3294 2.63954 15.7846 1.55029 12.7543 1.55029C8.35964 1.55029 4.55774 4.01358 2.70789 7.60608L6.4638 10.4541C7.34784 7.85591 9.82623 5.92225 12.7543 5.92225Z" fill="#EA4335"/>
</svg>
