<svg width="85" height="85" viewBox="0 0 85 85" fill="none" xmlns="http://www.w3.org/2000/svg">
<ellipse cx="42.1554" cy="42.5" rx="42.1554" ry="42.5" fill="#00B074" fill-opacity="0.15"/>
<path d="M35.9735 19.8312L12.6567 29.4496L35.9735 39.0679L59.2902 29.4496L35.9735 19.8312Z" fill="#00B074"/>
<path d="M26.5097 23.7554L22.1211 25.5252L45.4378 35.182L49.7882 33.3737L26.5097 23.7554Z" fill="#F7C604"/>
<path d="M12.6567 29.4496V55.9578L35.9735 65.5762V39.068L12.6567 29.4496Z" fill="#0A5239"/>
<path d="M59.2903 29.4496V55.9578L35.9736 65.5762V39.068L59.2903 29.4496Z" fill="#00D68D"/>
<path opacity="0.1" d="M59.2901 42.9923C58.6031 42.8384 57.9162 42.7615 57.1912 42.7615C51.5433 42.7615 46.9639 47.3783 46.9639 53.0724C46.9639 55.727 47.9561 58.1509 49.597 59.9591L59.2901 55.9579V42.9923Z" fill="#0C1E5B"/>
<path d="M45.4375 35.182V46.3009L49.7879 44.4926V33.3738L45.4375 35.182Z" fill="#F7C604"/>
<path d="M61.3508 62.6137C66.9992 62.6137 71.5781 57.9974 71.5781 52.3028C71.5781 46.6083 66.9992 41.9919 61.3508 41.9919C55.7025 41.9919 51.1235 46.6083 51.1235 52.3028C51.1235 57.9974 55.7025 62.6137 61.3508 62.6137Z" fill="#F9C267"/>
<path d="M60.2826 56.3041C59.9773 56.3041 59.7102 56.1887 59.4812 55.9578L56.2375 52.6876C55.7796 52.2259 55.7796 51.4949 56.2375 51.0717C56.6954 50.61 57.4205 50.61 57.8403 51.0717L60.2826 53.534L64.862 48.9172C65.32 48.4555 66.045 48.4555 66.4648 48.9172C66.9227 49.3789 66.9227 50.1099 66.4648 50.5331L61.084 55.9578C60.855 56.1887 60.5879 56.3041 60.2826 56.3041Z" fill="white"/>
<path d="M20.2128 52.3799L17.6941 47.1475L15.3281 50.2638L16.6256 50.8409V54.2266L18.7245 55.1884V51.7643L20.2128 52.3799Z" fill="#F2F5F3"/>
</svg>
