<svg width="85" height="85" viewBox="0 0 85 85" fill="none" xmlns="http://www.w3.org/2000/svg">
<ellipse cx="42.1554" cy="42.5" rx="42.1554" ry="42.5" fill="#00B074" fill-opacity="0.15"/>
<path d="M18.6519 64.2747C21.8187 64.2747 24.4063 61.6627 24.4063 58.466V21.041H58.0061V58.466C58.0061 61.6627 55.4185 64.2747 52.2516 64.2747" fill="#00B074"/>
<path d="M46.4972 58.4659V54.0607H12.8975V58.4659C12.8975 61.6626 15.485 64.2746 18.6519 64.2746H52.2517C49.0848 64.2746 46.4972 61.6626 46.4972 58.4659Z" fill="#0A5239"/>
<path d="M34.718 28.4868H30.4312V30.3581H34.718V28.4868Z" fill="white"/>
<path d="M51.2091 28.4868H38.0396V30.3581H51.2091V28.4868Z" fill="#F7C604"/>
<path d="M34.718 35.1141H30.4312V36.9854H34.718V35.1141Z" fill="white"/>
<path d="M51.2091 35.1141H38.0396V36.9854H51.2091V35.1141Z" fill="#F7C604"/>
<path d="M34.718 41.7417H30.4312V43.6129H34.718V41.7417Z" fill="white"/>
<path d="M51.2091 41.7417H38.0396V43.6129H51.2091V41.7417Z" fill="#F7C604"/>
<path d="M34.718 48.369H30.4312V50.2403H34.718V48.369Z" fill="white"/>
<path d="M51.2091 48.369H38.0396V50.2403H51.2091V48.369Z" fill="#F7C604"/>
<path opacity="0.1" d="M58.0063 48.681V26.4209C57.5428 26.3429 57.0408 26.304 56.5387 26.304C50.398 26.304 45.416 31.3329 45.416 37.5315C45.416 43.73 50.398 48.7589 56.5387 48.7589C57.0408 48.7979 57.5428 48.759 58.0063 48.681Z" fill="#0C1E5B"/>
<path d="M60.4397 46.537C66.5826 46.537 71.5625 41.5102 71.5625 35.3094C71.5625 29.1086 66.5826 24.0818 60.4397 24.0818C54.2967 24.0818 49.3169 29.1086 49.3169 35.3094C49.3169 41.5102 54.2967 46.537 60.4397 46.537Z" fill="#F9C267"/>
<path d="M62.4087 36.0889V29.1107H58.4694V36.0889H55.8433L60.4391 41.5077L65.0349 36.0889H62.4087Z" fill="white"/>
</svg>
