<svg width="85" height="85" viewBox="0 0 85 85" fill="none" xmlns="http://www.w3.org/2000/svg">
<ellipse cx="42.1554" cy="42.5" rx="42.1554" ry="42.5" fill="#00B074" fill-opacity="0.15"/>
<path d="M41.7135 23.9521C41.1197 23.9521 40.6532 23.4818 40.6532 22.8832V20.1896C40.6532 17.2822 38.3207 14.9306 35.4793 14.9306C34.0798 14.9306 32.8076 15.4865 31.7898 16.4698C30.7719 17.4532 30.263 18.7786 30.263 20.1896V22.8832C30.263 23.4818 29.7965 23.9521 29.2028 23.9521C28.6091 23.9521 28.1426 23.4818 28.1426 22.8832V20.1896C28.1426 18.2228 28.9059 16.3843 30.263 14.9734C31.6625 13.5624 33.4861 12.7928 35.4369 12.7928C39.4658 12.7928 42.7313 16.085 42.7313 20.1468V22.8404C42.7737 23.4818 42.3072 23.9521 41.7135 23.9521Z" fill="#FFD497"/>
<path d="M58.3802 59.9952H27.464L22.3325 20.0614H56.2173L58.3802 59.9952Z" fill="#00B074"/>
<path d="M27.464 59.9952L20.1272 58.7125L12.748 59.9952L14.9533 20.0614H25.2587L27.464 59.9952Z" fill="#0A5239"/>
<path d="M40.9076 33.8287C36.8788 33.8287 33.6133 30.5365 33.6133 26.4747V23.7811C33.6133 23.1825 34.0798 22.7122 34.6735 22.7122C35.2672 22.7122 35.7337 23.1825 35.7337 23.7811V26.4747C35.7337 29.3821 38.0662 31.6909 40.9076 31.6909C43.749 31.6909 46.1239 29.3393 46.1239 26.4319V23.7383C46.1239 23.1397 46.5904 22.6694 47.1842 22.6694C47.7779 22.6694 48.2444 23.1397 48.2444 23.7383V26.4319C48.2444 30.5365 44.9789 33.8287 40.9076 33.8287Z" fill="white"/>
<path opacity="0.1" d="M42.8164 54.5224C42.8164 56.4891 43.3253 58.3704 44.2159 59.9951H58.4229L57.5323 43.5769C56.4721 43.2349 55.3695 43.0638 54.2244 43.0638C47.9055 43.0638 42.8164 48.1945 42.8164 54.5224Z" fill="#0C1E5B"/>
<path d="M60.119 65.9809C66.3961 65.9809 71.4846 60.8507 71.4846 54.5224C71.4846 48.194 66.3961 43.0638 60.119 43.0638C53.842 43.0638 48.7534 48.194 48.7534 54.5224C48.7534 60.8507 53.842 65.9809 60.119 65.9809Z" fill="#FFC66A"/>
<path d="M58.9317 58.9691C58.5925 58.9691 58.2956 58.8409 58.0411 58.5843L54.4364 54.9501C53.9275 54.437 53.9275 53.6247 54.4364 53.1544C54.9453 52.6413 55.7511 52.6413 56.2176 53.1544L58.9317 55.8907L64.0208 50.76C64.5297 50.247 65.3355 50.247 65.802 50.76C66.3109 51.2731 66.3109 52.0855 65.802 52.5558L59.8223 58.5843C59.5679 58.8409 59.2286 58.9691 58.9317 58.9691Z" fill="white"/>
</svg>
