<svg width="17" height="17" viewBox="0 0 17 17" fill="none" xmlns="http://www.w3.org/2000/svg">
<rect x="16.373" y="17" width="16" height="16.1308" rx="8" transform="rotate(-180 16.373 17)" fill="#2ED6A3" fill-opacity="0.15"/>
<g clip-path="url(#clip0_1_920)">
<path d="M6.39323 8.79566C6.48148 8.88461 6.60116 8.93457 6.72594 8.93457C6.85072 8.93457 6.9704 8.88461 7.05865 8.79566L7.90241 7.945L7.90241 11.0696C7.90241 11.1955 7.95199 11.3161 8.04024 11.4051C8.12849 11.4941 8.24819 11.5441 8.373 11.5441C8.49781 11.5441 8.6175 11.4941 8.70575 11.4051C8.79401 11.3161 8.84359 11.1955 8.84359 11.0696L8.84359 7.945L9.68735 8.79566C9.77611 8.88209 9.89498 8.92991 10.0184 8.92883C10.1418 8.92775 10.2598 8.87785 10.347 8.78989C10.4343 8.70192 10.4838 8.58293 10.4848 8.45853C10.4859 8.33414 10.4385 8.21429 10.3528 8.12481L8.7057 6.46429C8.61746 6.37535 8.49778 6.32538 8.373 6.32538C8.24822 6.32538 8.12854 6.37535 8.04029 6.46429L6.39323 8.12481C6.30501 8.21378 6.25545 8.33444 6.25545 8.46024C6.25545 8.58604 6.30501 8.70669 6.39323 8.79566Z" fill="#00A389"/>
</g>
<defs>
<clipPath id="clip0_1_920">
<rect width="5.64706" height="5.69322" fill="white" transform="translate(11.1968 11.7812) rotate(-180)"/>
</clipPath>
</defs>
</svg>
